<?xml version="1.0" standalone="no"?>
<!DOCTYPE svg PUBLIC "-//W3C//DTD SVG 20010904//EN"
 "http://www.w3.org/TR/2001/REC-SVG-20010904/DTD/svg10.dtd">
<svg version="1.0" xmlns="http://www.w3.org/2000/svg"
 width="512.000000pt" height="512.000000pt" viewBox="0 0 512.000000 512.000000"
 preserveAspectRatio="xMidYMid meet">

<g transform="translate(0.000000,512.000000) scale(0.100000,-0.100000)"
fill="#000000" stroke="none">
<path d="M4285 4513 c-30 -5 -3700 -1470 -3765 -1503 -50 -26 -114 -97 -135
-152 -22 -60 -18 -176 10 -233 39 -80 88 -115 255 -185 210 -88 262 -86 328
10 31 47 30 123 -2 171 -25 37 -42 47 -156 94 -36 15 -68 30 -73 34 -4 4 806
332 1800 730 1629 651 1808 721 1822 707 13 -14 -17 -164 -308 -1523 -177
-830 -329 -1531 -336 -1559 -15 -54 -47 -80 -82 -67 -13 5 -1249 961 -1296
1003 -4 4 280 297 632 652 571 576 641 650 651 689 20 74 -21 160 -90 189 -78
32 -58 43 -1050 -544 -509 -301 -936 -556 -950 -565 -72 -51 -93 -153 -46
-222 45 -66 136 -88 206 -51 19 10 186 107 370 216 184 109 351 207 370 219
l35 20 -40 -44 c-22 -24 -113 -118 -201 -209 -94 -96 -171 -184 -185 -210 -16
-32 -24 -68 -27 -126 -4 -72 -1 -88 23 -141 14 -33 45 -78 68 -100 74 -71
1350 -1045 1397 -1066 36 -17 66 -21 150 -22 95 0 111 3 167 29 74 34 154 113
185 183 11 25 171 753 355 1617 366 1718 352 1639 304 1749 -30 69 -110 149
-179 180 -57 26 -151 39 -207 30z"/>
</g>
</svg>
