<?xml version="1.0" standalone="no"?>
<!DOCTYPE svg PUBLIC "-//W3C//DTD SVG 20010904//EN"
 "http://www.w3.org/TR/2001/REC-SVG-20010904/DTD/svg10.dtd">
<svg version="1.0" xmlns="http://www.w3.org/2000/svg"
 width="50px" height="50px" viewBox="0 0 169.000000 130.000000"
 preserveAspectRatio="xMidYMid meet">

<g transform="translate(0.000000,130.000000) scale(0.100000,-0.100000)"
fill="#000000" stroke="none">
<path d="M755 1264 c-205 -50 -353 -173 -423 -354 -62 -162 -54 -299 26 -469
16 -34 15 -37 -35 -183 -27 -81 -50 -148 -49 -148 0 0 69 22 153 50 l152 49
48 -21 c372 -165 793 109 793 517 0 96 -18 166 -64 260 -46 91 -101 153 -184
208 -102 68 -168 89 -292 93 -58 1 -114 1 -125 -2z m247 -103 c83 -28 117 -49
176 -105 106 -99 152 -205 152 -349 0 -140 -35 -230 -128 -329 -142 -152 -367
-194 -553 -103 l-55 27 -88 -27 c-48 -15 -89 -26 -91 -24 -1 2 10 42 25 89
l28 85 -28 50 c-86 154 -79 341 18 491 59 90 135 151 242 192 75 29 223 30
302 3z"/>
<path d="M623 958 c-72 -80 -56 -183 50 -324 68 -90 137 -142 241 -184 102
-41 193 -22 222 45 8 19 14 41 14 49 0 8 -32 31 -71 51 l-72 37 -36 -42 -37
-43 -42 22 c-56 29 -119 86 -153 140 l-28 43 30 38 30 37 -28 74 c-27 71 -30
74 -64 77 -26 2 -40 -3 -56 -20z"/>
</g>
</svg>
