<?xml version="1.0" standalone="no"?>
<!DOCTYPE svg PUBLIC "-//W3C//DTD SVG 20010904//EN"
 "http://www.w3.org/TR/2001/REC-SVG-20010904/DTD/svg10.dtd">
<svg version="1.0" xmlns="http://www.w3.org/2000/svg"
 width="225.000000pt" height="225.000000pt" viewBox="0 0 225.000000 225.000000"
 preserveAspectRatio="xMidYMid meet">

<g transform="translate(0.000000,225.000000) scale(0.100000,-0.100000)"
fill="#000000" stroke="none">
<path d="M1038 1850 c-225 -38 -407 -186 -491 -398 -26 -66 -31 -94 -35 -192
-5 -130 10 -204 57 -299 l29 -55 -56 -158 c-30 -87 -52 -161 -49 -164 3 -3 79
18 170 46 l164 53 65 -27 c98 -39 159 -49 277 -44 129 5 223 35 324 104 176
121 270 300 271 519 0 173 -57 308 -184 436 -143 145 -347 212 -542 179z m203
-100 c92 -17 207 -80 277 -154 205 -213 201 -528 -9 -737 -80 -80 -163 -123
-278 -146 -110 -22 -213 -8 -318 41 l-72 34 -96 -30 c-53 -16 -99 -28 -101
-25 -2 2 10 44 28 93 l31 89 -41 85 c-90 182 -74 380 42 538 126 171 327 251
537 212z"/>
<path d="M900 1507 c-33 -17 -70 -84 -70 -128 0 -104 122 -277 256 -362 56
-35 178 -77 225 -77 71 0 132 47 144 110 l6 35 -80 39 -80 39 -28 -33 c-15
-18 -31 -37 -34 -43 -10 -15 -59 1 -116 38 -51 34 -133 125 -133 148 0 6 12
28 26 49 l26 38 -28 67 c-15 38 -32 74 -37 81 -12 15 -45 15 -77 -1z"/>
<path d="M1174 145 c-7 -18 3 -35 22 -35 8 0 14 2 14 4 0 2 3 13 6 23 5 15 4
15 -5 3 -9 -13 -11 -13 -11 3 0 21 -18 23 -26 2z"/>
<path d="M1252 135 c0 -16 2 -22 5 -12 2 9 2 23 0 30 -3 6 -5 -1 -5 -18z"/>
<path d="M1402 134 c-1 -13 0 -24 2 -24 7 0 14 40 7 44 -4 3 -8 -6 -9 -20z"/>
<path d="M1271 124 c0 -11 3 -14 6 -6 3 7 2 16 -1 19 -3 4 -6 -2 -5 -13z"/>
<path d="M1294 128 c4 -18 53 -20 53 -3 0 7 -8 13 -18 12 -10 -1 -15 -5 -13
-9 3 -4 1 -8 -5 -8 -5 0 -12 5 -14 10 -3 6 -4 5 -3 -2z"/>
<path d="M1360 120 c0 -14 5 -18 16 -13 11 4 12 8 4 13 -9 6 -9 9 1 13 10 4 9
6 -3 6 -12 1 -18 -6 -18 -19z"/>
<path d="M1425 131 c-3 -5 -2 -12 3 -15 5 -3 9 1 9 9 0 17 -3 19 -12 6z"/>
</g>
</svg>
